<svg width="250" height="317" xmlns="http://www.w3.org/2000/svg">
    <g fill="none" fill-rule="evenodd">
        <g transform="translate(2 262)" stroke="#D9ECFF">
            <rect stroke-width="4" width="242" height="53" rx="26.5"/>
            <rect x="5" y="4" width="232" height="45" rx="22.5"/>
        </g>
        <path d="M190.577 129.712c32.745 0 59.386 26.641 59.386 59.387a3 3 0 1 1-6 0c0-29.438-23.95-53.387-53.386-53.387-29.438 0-53.386 23.95-53.386 53.387s23.948 53.387 53.386 53.387c24.486 0 45.77-16.556 51.762-40.262a2.994 2.994 0 0 1 3.644-2.173 2.998 2.998 0 0 1 2.172 3.644c-6.665 26.372-30.342 44.791-57.578 44.791-32.746 0-59.386-26.64-59.386-59.387 0-32.746 26.64-59.387 59.386-59.387zm-.378 14.42c5.813 0 8.798 5.658 9.645 9 .04.16.068.324.081.489l.01.248v26.416h23.76c7.052 0 10.78 3.727 10.78 10.78 0 6.02-5.939 9.19-9.448 10.113a2.97 2.97 0 0 1-.57.093l-.194.006h-25.37v22.526c0 6.83-3.762 10.591-10.592 10.591-6.297 0-9.392-6.05-10.228-9.624a2.956 2.956 0 0 1-.07-.454l-.009-.23v-22.809h-11.803a3 3 0 0 1-.176-5.995l.176-.005h14.803a3 3 0 0 1 2.995 2.824l.005.176v25.397c.323 1.04 1.652 4.72 4.307 4.72 3.397 0 4.54-1.065 4.59-4.357l.001-.234v-25.526a3 3 0 0 1 2.824-2.995l.176-.005h27.91c1.08-.373 4.672-1.799 4.672-4.212 0-3.671-.983-4.734-4.539-4.778l-.24-.002h-26.76a3 3 0 0 1-2.995-2.824l-.005-.176v-28.968c-.335-.988-1.586-4.185-3.736-4.185-3.55 0-5.448 2.656-5.537 5.344l-.003.196v27.802a3 3 0 0 1-2.824 2.995l-.176.005H153.85c-.39.086-2.08.68-2.164 4.339l-.003.287v.116c.008 1.092.218 3.35 6.11 3.35a3 3 0 0 1 0 6c-10.929 0-12.11-6.62-12.11-9.466 0-7.93 5.073-10.413 7.755-10.617l.114-.007.114-.002h24.993v-24.802c0-6.47 5.07-11.54 11.54-11.54zM75.573 9.276a3.5 3.5 0 0 1-1.998 4.528c-18.807 7.292-34.872 19.929-46.459 36.544C15.265 67.343 9 87.32 9 108.118c0 29.487 12.69 56.062 32.89 74.563l.615.558v-10.652c0-.356.064-.71.187-1.043.127-.342 3.172-8.46 9.201-16.674 8.12-11.062 17.834-16.988 28.122-17.162l.468-.004h64.145a3 3 0 0 1 .176 5.995l-.176.005h-7.631c-1.563 12.682-10.927 24.85-29.065 24.85-15.49 0-23.81-14.661-25.503-24.552l-.049-.298h-1.897c-19.17 0-30.208 25.104-31.929 29.328l-.049.122v15.085c17.071 13.158 38.442 20.997 61.613 20.997 4.823 0 9.672-.343 14.412-1.018 1.909-.284 3.685 1.056 3.959 2.97a3.499 3.499 0 0 1-2.971 3.959 109.368 109.368 0 0 1-15.4 1.089C50.501 216.236 2 167.735 2 108.118 2 85.88 8.7 64.52 21.374 46.344c12.386-17.76 29.561-31.27 49.67-39.066a3.5 3.5 0 0 1 4.529 1.998zm55.406 134.428h-42.48c1.162 6.085 5.01 18.578 17.038 18.846l.395.004h4c9.764 0 19.232-5.88 21.047-18.85zM20.544 94.462a3.001 3.001 0 0 1 2.562 3.38c-.032.235-2.759 21.495 7.345 43.508a3 3 0 1 1-5.453 2.503c-10.867-23.675-7.965-45.894-7.836-46.829a2.993 2.993 0 0 1 3.382-2.562zM110.118 0c59.617 0 108.118 48.502 108.118 108.118 0 5.639-.438 11.3-1.303 16.826a3.5 3.5 0 0 1-6.916-1.082 102.15 102.15 0 0 0 1.219-15.744C211.236 52.362 165.875 7 110.118 7c-.947 0-2.292.047-3.999.138a3.508 3.508 0 0 1-3.682-3.308 3.5 3.5 0 0 1 3.308-3.682C107.576.05 109.047 0 110.118 0zm.73 40.158c23.47 0 31.333 17.166 32.212 26.243l.01.144.004.145v28.847c0 7.466-15.83 31.866-37.142 31.866-18.29 0-27.484-21.35-30.156-28.874a2.996 2.996 0 0 1-.943-1.976l-.007-.214V73.902c0-32.541 35.594-33.735 35.953-33.743l.069-.001zM96.995 68.529c-1.937 2.016-4.511 3.758-7.691 5.188-3.035 1.363-6.043 2.176-8.167 2.637l-.311.066v18.288c1.039 3.28 9.02 26.695 25.106 26.695 17.676 0 30.875-21.28 31.138-25.736l.004-.13V82.551c-5.338 1.197-10.206 1.801-14.58 1.801-7.578 0-13.687-1.796-18.254-5.38-3.306-2.594-5.757-6.162-7.245-10.443zm26.986-49.564c35.13 7.268 53.3 25.466 62.355 39.453 9.864 15.235 11.32 28.66 11.379 29.225a3 3 0 0 1-5.97.61c-.013-.135-1.434-12.78-10.61-26.826-12.281-18.805-31.92-31.114-58.37-36.586a3.002 3.002 0 0 1-2.33-3.546 3.004 3.004 0 0 1 3.546-2.33zm-96.6 48.128a3 3 0 0 1 1.013 4.12c-3.967 6.553-3.75 12.354-3.746 12.411a3.007 3.007 0 0 1-3 3.147 2.991 2.991 0 0 1-2.991-2.819c-.018-.307-.376-7.62 4.604-15.846a3 3 0 0 1 4.12-1.013zm83.507-20.935c-1.554.046-27.324 1.195-29.845 24.056 5.214-1.294 14.28-4.639 14.28-12.253a3 3 0 1 1 6 0c0 5.061 1.148 11.996 6.62 16.291 5.829 4.574 15.423 5.336 28.514 2.285l.617-.146v-9.534c-.23-1.869-3.116-20.678-26.186-20.699zM98.003 4.263a3.5 3.5 0 0 1-3.293 3.695c-6.731.388-10.823 2.121-10.863 2.14a3.504 3.504 0 0 1-4.601-1.812 3.494 3.494 0 0 1 1.788-4.599c.208-.092 5.18-2.25 13.274-2.717a3.504 3.504 0 0 1 3.695 3.293z" fill="#D9ECFF"/>
        <path d="M52.224 295.096c1.259 0 2.355-.317 3.288-.952.933-.635 1.587-1.523 1.96-2.664h-2.576c-.256.533-.616.936-1.08 1.208-.464.272-1 .408-1.608.408-.65 0-1.23-.152-1.736-.456a3.101 3.101 0 0 1-1.184-1.296c-.283-.56-.424-1.208-.424-1.944 0-.747.141-1.397.424-1.952a3.112 3.112 0 0 1 1.184-1.288c.507-.304 1.085-.456 1.736-.456.608 0 1.144.133 1.608.4.464.267.824.667 1.08 1.2h2.576c-.373-1.13-1.03-2.016-1.968-2.656-.939-.64-2.032-.96-3.28-.96-1.067 0-2.03.243-2.888.728a5.313 5.313 0 0 0-2.032 2.032c-.496.87-.744 1.853-.744 2.952s.248 2.08.744 2.944a5.329 5.329 0 0 0 2.032 2.024c.859.485 1.821.728 2.888.728zm9.408-.096v-11.84h-2.24V295h2.24zm3.344-9.92c.395 0 .723-.125.984-.376.261-.25.392-.563.392-.936 0-.373-.13-.685-.392-.936-.261-.25-.59-.376-.984-.376-.395 0-.723.125-.984.376-.261.25-.392.563-.392.936 0 .373.13.685.392.936.261.25.59.376.984.376zM66.08 295v-8.864h-2.24V295h2.24zm6.016.144c1.088 0 1.995-.283 2.72-.848.725-.565 1.21-1.328 1.456-2.288h-2.416c-.277.81-.87 1.216-1.776 1.216-.64 0-1.147-.232-1.52-.696-.373-.464-.56-1.117-.56-1.96 0-.853.187-1.512.56-1.976.373-.464.88-.696 1.52-.696.448 0 .824.11 1.128.328.304.219.52.52.648.904h2.416c-.245-.992-.728-1.763-1.448-2.312-.72-.55-1.63-.824-2.728-.824-.853 0-1.61.19-2.272.568a4.003 4.003 0 0 0-1.552 1.6c-.373.688-.56 1.49-.56 2.408 0 .917.187 1.72.56 2.408.373.688.89 1.221 1.552 1.6.661.379 1.419.568 2.272.568zM80.16 295v-3.776L83.168 295h2.912l-3.936-4.416 3.904-4.448h-2.912l-2.976 3.76v-6.736h-2.24V295h2.24zm13.152 0v-4.896c0-.704.179-1.245.536-1.624.357-.379.845-.568 1.464-.568.608 0 1.088.19 1.44.568.352.379.528.92.528 1.624V295h2.24v-5.2c0-.8-.147-1.485-.44-2.056a3.032 3.032 0 0 0-1.224-1.296c-.523-.293-1.12-.44-1.792-.44-.587 0-1.12.11-1.6.328a2.92 2.92 0 0 0-1.152.904v-4.08h-2.24V295h2.24zm12.208.144c1.056 0 1.947-.275 2.672-.824a4.038 4.038 0 0 0 1.472-2.104h-2.416c-.352.715-.944 1.072-1.776 1.072-.576 0-1.061-.181-1.456-.544-.395-.363-.619-.864-.672-1.504h6.48c.043-.256.064-.544.064-.864 0-.864-.184-1.63-.552-2.296a3.829 3.829 0 0 0-1.552-1.544c-.667-.363-1.421-.544-2.264-.544-.875 0-1.648.187-2.32.56a3.907 3.907 0 0 0-1.568 1.6c-.373.693-.56 1.499-.56 2.416 0 .907.19 1.707.568 2.4.379.693.907 1.23 1.584 1.608.677.379 1.443.568 2.296.568zm2.048-5.408h-4.208c.085-.597.317-1.064.696-1.4.379-.336.845-.504 1.4-.504.587 0 1.083.173 1.488.52.405.347.613.808.624 1.384zM113.76 295v-4.416c0-.821.179-1.397.536-1.728.357-.33.888-.496 1.592-.496h.592v-2.352c-.597 0-1.128.133-1.592.4a3.15 3.15 0 0 0-1.128 1.104v-1.376h-2.24V295h2.24zm8.096.144c1.056 0 1.947-.275 2.672-.824a4.038 4.038 0 0 0 1.472-2.104h-2.416c-.352.715-.944 1.072-1.776 1.072-.576 0-1.061-.181-1.456-.544-.395-.363-.619-.864-.672-1.504h6.48c.043-.256.064-.544.064-.864 0-.864-.184-1.63-.552-2.296a3.829 3.829 0 0 0-1.552-1.544c-.667-.363-1.421-.544-2.264-.544-.875 0-1.648.187-2.32.56a3.907 3.907 0 0 0-1.568 1.6c-.373.693-.56 1.499-.56 2.416 0 .907.19 1.707.568 2.4.379.693.907 1.23 1.584 1.608.677.379 1.443.568 2.296.568zm2.048-5.408h-4.208c.085-.597.317-1.064.696-1.4.379-.336.845-.504 1.4-.504.587 0 1.083.173 1.488.52.405.347.613.808.624 1.384zM136.256 295v-1.888h-1.04c-.341 0-.584-.067-.728-.2-.144-.133-.216-.35-.216-.648v-4.288h1.984v-1.84h-1.984v-2.192h-2.256v2.192h-1.056v1.84h1.056v4.272c0 1.835.944 2.752 2.832 2.752h1.408zm5.552.144c.864 0 1.645-.19 2.344-.568a4.266 4.266 0 0 0 1.664-1.608c.41-.693.616-1.493.616-2.4 0-.907-.2-1.707-.6-2.4a4.17 4.17 0 0 0-1.64-1.608c-.693-.379-1.467-.568-2.32-.568-.853 0-1.627.19-2.32.568a4.17 4.17 0 0 0-1.64 1.608c-.4.693-.6 1.493-.6 2.4 0 .907.195 1.707.584 2.4a4.09 4.09 0 0 0 1.608 1.608c.683.379 1.45.568 2.304.568zm0-1.952c-.64 0-1.17-.227-1.592-.68-.421-.453-.632-1.101-.632-1.944s.216-1.49.648-1.944c.432-.453.968-.68 1.608-.68.64 0 1.181.227 1.624.68.443.453.664 1.101.664 1.944 0 .565-.107 1.045-.32 1.44-.213.395-.499.69-.856.888a2.33 2.33 0 0 1-1.144.296zm13.536 1.952c.661 0 1.245-.136 1.752-.408.507-.272.904-.616 1.192-1.032V295h2.256v-8.864h-2.256v1.264a3.523 3.523 0 0 0-1.192-1.008c-.496-.267-1.075-.4-1.736-.4-.757 0-1.443.187-2.056.56-.613.373-1.099.907-1.456 1.6-.357.693-.536 1.488-.536 2.384 0 .907.179 1.71.536 2.408.357.699.843 1.24 1.456 1.624a3.767 3.767 0 0 0 2.04.576zm.592-1.968c-.405 0-.787-.107-1.144-.32a2.362 2.362 0 0 1-.864-.92c-.219-.4-.328-.867-.328-1.4 0-.533.11-.995.328-1.384a2.29 2.29 0 0 1 .856-.888 2.269 2.269 0 0 1 1.152-.304c.416 0 .805.104 1.168.312.363.208.65.507.864.896.213.39.32.856.32 1.4 0 .544-.107 1.01-.32 1.4-.213.39-.501.688-.864.896a2.31 2.31 0 0 1-1.168.312zm10.272 1.968c.661 0 1.243-.133 1.744-.4.501-.267.89-.619 1.168-1.056V295h2.272v-11.84h-2.272v4.208a3.295 3.295 0 0 0-1.248-1 3.765 3.765 0 0 0-1.648-.376c-.757 0-1.445.187-2.064.56-.619.373-1.107.907-1.464 1.6-.357.693-.536 1.488-.536 2.384 0 .907.179 1.71.536 2.408.357.699.845 1.24 1.464 1.624a3.807 3.807 0 0 0 2.048.576zm.576-1.968c-.405 0-.787-.107-1.144-.32a2.362 2.362 0 0 1-.864-.92c-.219-.4-.328-.867-.328-1.4 0-.533.11-.995.328-1.384a2.29 2.29 0 0 1 .856-.888 2.269 2.269 0 0 1 1.152-.304c.416 0 .805.104 1.168.312.363.208.65.507.864.896.213.39.32.856.32 1.4 0 .544-.107 1.01-.32 1.4-.213.39-.501.688-.864.896a2.31 2.31 0 0 1-1.168.312zm10.272 1.968c.661 0 1.243-.133 1.744-.4.501-.267.89-.619 1.168-1.056V295h2.272v-11.84h-2.272v4.208a3.295 3.295 0 0 0-1.248-1 3.765 3.765 0 0 0-1.648-.376c-.757 0-1.445.187-2.064.56-.619.373-1.107.907-1.464 1.6-.357.693-.536 1.488-.536 2.384 0 .907.179 1.71.536 2.408.357.699.845 1.24 1.464 1.624a3.807 3.807 0 0 0 2.048.576zm.576-1.968c-.405 0-.787-.107-1.144-.32a2.362 2.362 0 0 1-.864-.92c-.219-.4-.328-.867-.328-1.4 0-.533.11-.995.328-1.384a2.29 2.29 0 0 1 .856-.888 2.269 2.269 0 0 1 1.152-.304c.416 0 .805.104 1.168.312.363.208.65.507.864.896.213.39.32.856.32 1.4 0 .544-.107 1.01-.32 1.4-.213.39-.501.688-.864.896a2.31 2.31 0 0 1-1.168.312zM194.72 295v-1.824h-4.24v-2.96h3.76v-1.776h-3.76v-2.8h4.24v-1.824h-6.48V295h6.48zm4.272 0v-4.352h1.056l2.464 4.352h2.592l-2.672-4.528c.843-.224 1.477-.632 1.904-1.224.427-.592.64-1.256.64-1.992 0-.64-.152-1.219-.456-1.736-.304-.517-.76-.928-1.368-1.232-.608-.304-1.344-.456-2.208-.456h-4.192V295h2.24zm1.872-6.032h-1.872v-3.28h1.872c.608 0 1.061.141 1.36.424.299.283.448.68.448 1.192 0 .523-.15.93-.448 1.224-.299.293-.752.44-1.36.44zM213.488 295v-1.824h-4.24v-2.96h3.76v-1.776h-3.76v-2.8h4.24v-1.824h-6.48V295h6.48z" fill="#56A9FF" fill-rule="nonzero"/>
    </g>
</svg>
