<svg xmlns="http://www.w3.org/2000/svg" width="17" height="16" viewBox="0 0 17 16">
    <g fill="none" fill-rule="evenodd">
        <g fill="#FFF" fill-rule="nonzero">
            <g>
                <g>
                    <g>
                        <g>
                            <path d="M3.348 9c1.849 0 3.348 1.499 3.348 3.348 0 1.849-1.499 3.348-3.348 3.348-1.85 0-3.348-1.499-3.348-3.348C0 10.498 1.499 9 3.348 9zM12.4 9c1.849 0 3.348 1.499 3.348 3.348 0 1.849-1.499 3.348-3.348 3.348-1.849 0-3.348-1.5-3.348-3.348 0-1.85 1.5-3.348 3.348-3.348zm.74 2.088l-.718.73-.718-.73-.533.534.727.728-.727.739.518.518.733-.733.733.733.518-.518-.728-.74.728-.727-.533-.534zm-8.735-.046l-1.45 1.45-.697-.695-.533.533 1.23 1.231 1.983-1.985-.533-.534zM3.348 0c1.849 0 3.348 1.499 3.348 3.348 0 1.849-1.499 3.348-3.348 3.348C1.498 6.696 0 5.197 0 3.348 0 1.498 1.499 0 3.348 0zM12.4 0c1.849 0 3.348 1.499 3.348 3.348 0 1.849-1.499 3.348-3.348 3.348-1.849 0-3.348-1.5-3.348-3.348 0-1.85 1.5-3.348 3.348-3.348zm.74 2.088l-.718.73-.718-.73-.533.534.727.728-.727.739.518.518.733-.733.733.733.518-.518-.728-.74.728-.727-.533-.534zm-8.735-.046l-1.45 1.45-.697-.695-.533.533 1.23 1.231 1.983-1.985-.533-.534z" transform="translate(-24.000000, -582.000000) translate(0.000000, 268.000000) translate(8.000000, 296.000000) translate(16.000000, 18.000000) translate(0.812737, -0.000000)"/>
                        </g>
                    </g>
                </g>
            </g>
        </g>
    </g>
</svg>
