<svg xmlns="http://www.w3.org/2000/svg" width="13" height="13" viewBox="0 0 13 13">
    <g fill="none" fill-rule="evenodd">
        <g fill="#56A9FF" fill-rule="nonzero">
            <g>
                <g>
                    <g>
                        <g>
                            <path d="M12.252 0H.53C.24 0 0 .24 0 .53v11.74c0 .29.24.53.53.53h11.74c.29 0 .53-.24.53-.53V.53c0-.29-.24-.53-.548-.53zm-.53 11.739H1.06V1.061h10.66v10.678z" transform="translate(-802.000000, -327.000000) translate(761.000000, 212.000000) translate(16.000000, 49.000000) translate(25.000000, 64.000000) translate(0.000000, 2.000000)"/>
                            <path d="M2.122 2.139H3.183V9.068999999999999H2.122zM3.73 2.139H4.73V9.068999999999999H3.73zM4.791 2.139H5.791V9.068999999999999H4.791zM7.461 2.139H8.461V9.068999999999999H7.461zM8.522 2.139H9.522V9.068999999999999H8.522zM9.6 2.139H10.661V9.068999999999999H9.6zM5.852 2.139H6.913V9.068999999999999H5.852zM2.122 9.6H3.183V10.661H2.122zM7.461 9.6H8.522V10.661H7.461zM3.73 9.6H4.73V10.661H3.73zM9.052 9.6H10.052V10.661H9.052zM10.13 9.6H11.13V10.661H10.13zM4.791 9.6H6.93V10.661H4.791z" transform="translate(-802.000000, -327.000000) translate(761.000000, 212.000000) translate(16.000000, 49.000000) translate(25.000000, 64.000000) translate(0.000000, 2.000000)"/>
                        </g>
                    </g>
                </g>
            </g>
        </g>
    </g>
</svg>
