<svg xmlns="http://www.w3.org/2000/svg" width="17" height="16" viewBox="0 0 17 16">
    <g fill="none" fill-rule="evenodd">
        <g fill="#2069C1" fill-rule="nonzero">
            <g>
                <g>
                    <g>
                        <path d="M4.091 3.47c-.342 0-.62.279-.62.621 0 .343.278.621.62.621.343 0 .621-.278.621-.62 0-.343-.278-.622-.62-.622z" transform="translate(-24.000000, -358.000000) translate(0.000000, 268.000000) translate(24.243895, 90.000000) translate(0.000000, 7.817299)"/>
                        <path d="M7.18 3.596l1.003-.71-.986-1.68-1.126.5c-.259-.21-.553-.378-.871-.496L5.077 0H3.106l-.123 1.21c-.319.118-.612.287-.871.495l-1.126-.5L0 2.886l1.003.71c-.054.327-.054.664 0 .99L0 5.297l.986 1.682 1.126-.5c.259.208.552.376.87.495l.124 1.21h1.971l.123-1.21c.318-.119.612-.287.871-.496l1.126.5.986-1.68-1.003-.71c.026-.162.09-.569 0-.991zM4.09 5.662c-.866 0-1.57-.704-1.57-1.57 0-.867.704-1.571 1.57-1.571.866 0 1.571.704 1.571 1.57 0 .867-.705 1.571-1.57 1.571z" transform="translate(-24.000000, -358.000000) translate(0.000000, 268.000000) translate(24.243895, 90.000000) translate(0.000000, 7.817299)"/>
                    </g>
                    <g>
                        <path d="M4.091 3.47c-.342 0-.62.279-.62.621 0 .343.278.621.62.621.343 0 .621-.278.621-.62 0-.343-.278-.622-.62-.622z" transform="translate(-24.000000, -358.000000) translate(0.000000, 268.000000) translate(24.243895, 90.000000) translate(7.817368, 0.000000)"/>
                        <path d="M7.18 3.596l1.003-.71-.986-1.68-1.126.5c-.259-.21-.553-.378-.871-.496L5.077 0H3.106l-.123 1.21c-.319.118-.612.287-.871.495l-1.126-.5L0 2.886l1.003.71c-.054.327-.054.664 0 .99L0 5.297l.986 1.682 1.126-.5c.259.208.552.376.87.495l.124 1.21h1.971l.123-1.21c.318-.119.612-.287.871-.496l1.126.5.986-1.68-1.003-.71c.026-.162.09-.569 0-.991zM4.09 5.662c-.866 0-1.57-.705-1.57-1.57 0-.867.704-1.571 1.57-1.571.866 0 1.571.704 1.571 1.57 0 .866-.705 1.571-1.57 1.571z" transform="translate(-24.000000, -358.000000) translate(0.000000, 268.000000) translate(24.243895, 90.000000) translate(7.817368, 0.000000)"/>
                    </g>
                    <g>
                        <path d="M1.876 5.827L.94 5.66c.248-1.39.903-2.663 1.895-3.678C3.826.968 5.08.282 6.46 0l.19.93c-2.42.496-4.34 2.464-4.774 4.897z" transform="translate(-24.000000, -358.000000) translate(0.000000, 268.000000) translate(24.243895, 90.000000) translate(0.119248, 1.093026)"/>
                        <path d="M1.415 6.213c-.153 0-.302-.075-.392-.207L0 4.508l.784-.535.812 1.187 1.366-.523.34.887s-1.83.689-1.887.689z" transform="translate(-24.000000, -358.000000) translate(0.000000, 268.000000) translate(24.243895, 90.000000) translate(0.119248, 1.093026)"/>
                    </g>
                    <g>
                        <path d="M5.998 2.192l-.892-1.128-1.326.617-.401-.86L5.046.043c.199-.092.436-.036.573.136l1.124 1.423-.745.59z" transform="translate(-24.000000, -358.000000) translate(0.000000, 268.000000) translate(24.243895, 90.000000) translate(9.212444, 8.678496)"/>
                        <path d="M.188 6.233L0 5.302C2.434 4.81 4.36 2.839 4.794.395l.935.166c-.247 1.395-.905 2.671-1.9 3.69C2.833 5.268 1.574 5.953.187 6.233z" transform="translate(-24.000000, -358.000000) translate(0.000000, 268.000000) translate(24.243895, 90.000000) translate(9.212444, 8.678496)"/>
                    </g>
                </g>
            </g>
        </g>
    </g>
</svg>
