<svg xmlns="http://www.w3.org/2000/svg" width="13" height="11" viewBox="0 0 13 11">
    <g fill="none" fill-rule="evenodd">
        <g fill="#56A9FF" fill-rule="nonzero">
            <g>
                <g>
                    <g>
                        <g>
                            <path d="M12.516 1.893V9.9c0 .607-.494 1.1-1.1 1.1H1.1C.493 11 0 10.507 0 9.9V1.892l1.318 3.956c.15.45.57.752 1.044.752h2.062v.367c0 .202.164.366.367.366h2.933c.203 0 .367-.164.367-.366V6.6h2.063c.474 0 .893-.302 1.043-.752l1.319-3.955zM7.358 5.867V6.6h-2.2v-.733h2.2zM7.724 0c.607 0 1.1.493 1.1 1.1v.367h3.06l-1.382 4.149c-.05.15-.19.25-.348.25H8.09V5.5c0-.203-.164-.367-.367-.367H4.791c-.203 0-.367.164-.367.367v.367H2.362c-.158 0-.298-.101-.348-.251L.63 1.466h3.06V1.1c0-.607.494-1.1 1.1-1.1zm0 .733H4.791c-.202 0-.367.165-.367.367v.367h3.667V1.1c0-.202-.164-.367-.367-.367z" transform="translate(-802.000000, -392.000000) translate(761.000000, 212.000000) translate(16.000000, 49.000000) translate(25.000000, 128.000000) translate(-0.000000, 3.000000)"/>
                        </g>
                    </g>
                </g>
            </g>
        </g>
    </g>
</svg>
