<svg xmlns="http://www.w3.org/2000/svg" width="27" height="24" viewBox="0 0 27 24">
    <g fill="none" fill-rule="evenodd">
        <g fill="#3698D8" fill-rule="nonzero">
            <g>
                <g>
                    <path d="M13.336 6.222l-.003 6.362c0 .242.098.473.272.643l4.64 4.55 1.31-1.285-4.368-4.284.003-5.986h-1.854z" transform="translate(-1610.000000, -292.000000) translate(1610.000000, 292.000000) translate(-0.000000, 0.000000)"/>
                    <path d="M15 0C9.134 0 4.28 4.48 3.467 10.286H0l4.167 4.285 4.166-4.285H5.151C5.948 5.429 10.055 1.714 15 1.714c5.514 0 10 4.614 10 10.286s-4.486 10.286-10 10.286c-3.1 0-5.974-1.443-7.886-3.96l-1.313 1.055C8.03 22.316 11.383 24 15 24c6.433 0 11.667-5.384 11.667-12S21.433 0 15 0z" transform="translate(-1610.000000, -292.000000) translate(1610.000000, 292.000000) translate(-0.000000, 0.000000)"/>
                </g>
            </g>
        </g>
    </g>
</svg>
