<svg xmlns="http://www.w3.org/2000/svg" width="17" height="17" viewBox="0 0 17 17">
    <g fill="none" fill-rule="evenodd">
        <g fill="#2069C1" fill-rule="nonzero">
            <g>
                <g>
                    <g>
                        <path d="M0 2v12.094c0 1.105.895 2 2 2h12c1.105 0 2-.895 2-2V2c0-1.105-.895-2-2-2H2C.895 0 0 .895 0 2zm4.525-.598c1.724 0 3.13 1.415 3.13 3.15 0 1.734-1.406 3.149-3.13 3.149s-3.13-1.415-3.13-3.15c0-1.738 1.401-3.149 3.13-3.149zm9.967 7.61l-4.872 4.2c-.114.098-.277.11-.403.032l-3.265-1.972-3.983 3.342c-.065.053-.143.082-.224.082-.098 0-.2-.041-.27-.127-.122-.148-.101-.37.046-.492l4.174-3.498c.114-.094.273-.107.403-.033l3.266 1.968 4.671-4.03c.147-.127.367-.111.49.037.126.147.11.369-.033.492zM14.263 7h-4.87c-.192 0-.347-.155-.347-.348 0-.193.155-.349.346-.349h4.871c.192 0 .347.156.347.349 0 .193-.155.348-.347.348zm0-2.099h-4.87c-.192 0-.347-.156-.347-.349 0-.192.155-.348.346-.348h4.871c.192 0 .347.156.347.348 0 .193-.155.349-.347.349zm0-2.1h-4.87c-.192 0-.347-.155-.347-.348 0-.193.155-.348.346-.348h4.871c.192 0 .347.155.347.348 0 .193-.155.349-.347.349z" transform="translate(-25.000000, -301.000000) translate(0.000000, 268.000000) translate(0.000000, 16.000000) translate(25.393581, 16.000000) translate(0.000000, 1.194118)"/>
                        <path d="M4.525 7C5.866 7 6.958 5.9 6.958 4.55c0-1.23-.909-2.255-2.087-2.423v2.28L6.16 5.704c.135.135.135.356 0 .496-.069.07-.158.102-.244.102-.09 0-.18-.032-.245-.102L4.28 4.802c-.065-.066-.102-.156-.102-.246V2.132C3 2.304 2.091 3.325 2.091 4.556 2.087 5.9 3.18 6.999 4.525 6.999z" transform="translate(-25.000000, -301.000000) translate(0.000000, 268.000000) translate(0.000000, 16.000000) translate(25.393581, 16.000000) translate(0.000000, 1.194118)"/>
                    </g>
                </g>
            </g>
        </g>
    </g>
</svg>
