<svg xmlns="http://www.w3.org/2000/svg" xmlns:xlink="http://www.w3.org/1999/xlink" width="17" height="11" viewBox="0 0 17 11">
    <defs>
        <path id="k0clpuv55a" d="M15.87 4.423C14.298 1.772 11.367 0 8.028 0 4.687 0 1.756 1.773.185 4.423c-.247.416-.247.933 0 1.35 1.572 2.65 4.503 4.423 7.843 4.423s6.27-1.773 7.842-4.423c.247-.417.247-.934 0-1.35zM8.028 8.866c-2.096 0-3.791-1.686-3.791-3.768 0-2.083 1.695-3.768 3.79-3.768 2.096 0 3.791 1.685 3.791 3.768 0 2.082-1.695 3.768-3.79 3.768zm2.898-3.768c0 1.591-1.298 2.881-2.898 2.881-1.601 0-2.9-1.29-2.9-2.881 0-.49.124-.953.342-1.357 0 .656.534 1.187 1.193 1.187.66 0 1.194-.53 1.194-1.186 0-.655-.534-1.187-1.194-1.187.406-.216.87-.339 1.365-.339 1.6 0 2.898 1.29 2.898 2.882z"/>
    </defs>
    <g fill="none" fill-rule="evenodd">
        <g>
            <g>
                <g>
                    <g>
                        <g transform="translate(-1566.000000, -794.000000) translate(82.000000, 631.000000) translate(16.000000, 16.000000) translate(0.000000, 132.000000) translate(1468.000000, 15.000000)">
                            <use fill="#56A9FF" xlink:href="#k0clpuv55a"/>
                        </g>
                    </g>
                </g>
            </g>
        </g>
    </g>
</svg>
