<svg xmlns="http://www.w3.org/2000/svg" width="14" height="14" viewBox="0 0 14 14">
    <g fill="none" fill-rule="evenodd">
        <g>
            <g>
                <g>
                    <g>
                        <g>
                            <g>
                                <g transform="translate(-1143.000000, -382.000000) translate(82.000000, 284.000000) translate(24.000000, 62.000000) translate(1037.300000, 34.000000) translate(0.000000, 2.000000) translate(-0.000000, -0.000000) translate(-0.000000, -0.000000)">
                                    <ellipse cx="5.634" cy="3.297" fill="#56A9FF" fill-rule="nonzero" rx="2.824" ry="3.297"/>
                                    <path fill="#56A9FF" fill-rule="nonzero" d="M7.823 6.634l.97.437C7.2 7.398 6 8.81 6 10.5c0 .897.338 1.716.893 2.335H1.27c-.703 0-1.27-.567-1.27-1.27V10.43C0 9.066.797 7.823 2.04 7.27l1.405-.635c.608.513 1.365.81 2.189.81.81 0 1.58-.297 2.189-.81z"/>
                                    <circle cx="9.75" cy="10.75" r="2.75" fill="#56A9FF"/>
                                    <path fill="#FFF" fill-rule="nonzero" d="M10.804 11.23h-.35l-.341.68c-.044.074-.117.122-.2.122s-.16-.048-.195-.121l-.613-1.212-.204.408c-.04.073-.112.122-.195.122h-.487c-.122 0-.219-.097-.219-.219s.097-.219.22-.219h.35l.34-.681c.073-.147.317-.147.39 0l.608 1.212.21-.414c.038-.073.112-.122.194-.122h.487c.122 0 .22.098.22.22 0 .12-.093.223-.215.223z"/>
                                </g>
                            </g>
                        </g>
                    </g>
                </g>
            </g>
        </g>
    </g>
</svg>
