<svg xmlns="http://www.w3.org/2000/svg" width="10" height="12" viewBox="0 0 10 12">
    <g fill="none" fill-rule="evenodd">
        <g fill="#56A9FF" fill-rule="nonzero">
            <g>
                <g>
                    <g>
                        <g>
                            <g>
                                <g>
                                    <path d="M8.809.934H6.195v.874c0 .424-.344.769-.768.769H4.129c-.424 0-.769-.345-.769-.769V.934H.744c-.41 0-.744.334-.744.744v9.513c0 .41.333.743.744.743h8.063c.41 0 .744-.333.744-.743V1.678c.001-.41-.332-.744-.742-.744zM4.666 4.205c.802 0 1.455.652 1.455 1.455 0 .801-.652 1.454-1.455 1.454-.802 0-1.454-.652-1.454-1.454 0-.801.653-1.455 1.454-1.455zM7.194 9.94c0 .121-.098.219-.218.219H2.357c-.12 0-.218-.098-.218-.219V8.85c0-.407.158-.79.446-1.076.287-.287.67-.446 1.076-.446h.027l.023.014c.29.164.62.252.957.252.336 0 .665-.088.956-.252l.023-.014h.028c.406 0 .787.16 1.076.446.286.287.446.67.446 1.076v1.09h-.003z" transform="translate(-107.000000, -304.000000) translate(82.000000, 284.000000) translate(25.000000, 18.000000) translate(0.358824, 0.000000) translate(0.000000, 2.000000) translate(0.000000, 0.000000) translate(0.000000, 0.000000)"/>
                                    <path d="M5.425 0H4.127c-.12 0-.22.099-.22.22v1.588c0 .064.027.12.07.16.04.037.093.06.15.06h1.298c.06 0 .113-.023.151-.06.043-.04.069-.096.069-.16V.22C5.646.099 5.547 0 5.425 0zm-.649 1.13c-.15 0-.274-.123-.274-.274 0-.15.123-.274.274-.274.151 0 .275.123.275.274 0 .151-.124.275-.275.275z" transform="translate(-107.000000, -304.000000) translate(82.000000, 284.000000) translate(25.000000, 18.000000) translate(0.358824, 0.000000) translate(0.000000, 2.000000) translate(0.000000, 0.000000) translate(0.000000, 0.000000)"/>
                                </g>
                            </g>
                        </g>
                    </g>
                </g>
            </g>
        </g>
    </g>
</svg>
