<svg xmlns="http://www.w3.org/2000/svg" width="16" height="17" viewBox="0 0 16 17">
    <g fill="none" fill-rule="evenodd">
        <g fill="#56A9FF" fill-rule="nonzero">
            <g>
                <g>
                    <g>
                        <g>
                            <path d="M15.429 7.726c-.316 0-.572.256-.572.571v5.532c0 .272-.108.534-.301.727-.193.193-.455.301-.727.301H2.17c-.272 0-.534-.108-.727-.301-.193-.193-.301-.455-.301-.727V2.17c0-.568.46-1.028 1.028-1.028h5.806c.316 0 .572-.256.572-.572C8.549.256 8.293 0 7.977 0H2.171C.972 0 0 .972 0 2.171V13.83C0 15.028.972 16 2.171 16H13.83C15.028 16 16 15.028 16 13.829V8.297c0-.315-.256-.571-.571-.571z" transform="translate(-1375.000000, -490.000000) translate(82.000000, 419.000000) translate(16.000000, 57.000000) translate(1175.000000, 6.000000) translate(102.000000, 8.050661)"/>
                            <path d="M5.143 8v2.286c0 .315.256.571.571.571H8c.152 0 .297-.06.404-.167l7.429-7.429c.223-.223.223-.585 0-.808L13.547.167c-.223-.223-.585-.223-.808 0L5.31 7.596c-.107.107-.167.252-.167.404zm8-6.62l1.478 1.477-.907.906-1.477-1.477.906-.907zM6.286 8.236l5.143-5.143 1.477 1.477-5.143 5.143H6.286V8.237z" transform="translate(-1375.000000, -490.000000) translate(82.000000, 419.000000) translate(16.000000, 57.000000) translate(1175.000000, 6.000000) translate(102.000000, 8.050661)"/>
                        </g>
                    </g>
                </g>
            </g>
        </g>
    </g>
</svg>
