<svg width="24" height="24" xmlns="http://www.w3.org/2000/svg">
    <g fill="none" fill-rule="evenodd">
        <path d="M0 0h24v24H0z"/>
        <path d="m16.775 4.463 3.758 3.758a.407.407 0 0 1 0 .575l-9.1 9.1-3.866.429a.81.81 0 0 1-.896-.896l.429-3.866 9.1-9.1a.407.407 0 0 1 .575 0zm6.75-.955-2.033-2.033a1.63 1.63 0 0 0-2.3 0L17.717 2.95a.407.407 0 0 0 0 .575l3.758 3.758a.407.407 0 0 0 .575 0l1.475-1.475a1.63 1.63 0 0 0 0-2.3zM16 15.421v4.242H2.667V6.329h9.575a.512.512 0 0 0 .354-.146l1.666-1.666a.5.5 0 0 0-.354-.855H2a2 2 0 0 0-2 2V20.33a2 2 0 0 0 2 2h14.667a2 2 0 0 0 2-2v-6.575a.5.5 0 0 0-.855-.354l-1.666 1.667a.512.512 0 0 0-.146.354z" fill="#56a9ff"/>
    </g>
</svg>
