<svg xmlns="http://www.w3.org/2000/svg" width="12" height="12" viewBox="0 0 12 12">
    <g fill="none" fill-rule="evenodd">
        <g fill="#56A9FF" fill-rule="nonzero">
            <g>
                <g>
                    <g>
                        <g>
                            <g>
                                <path d="M3.829 7.796l.392-1.434 1.042 1.042-1.434.392zM4.39 6l1.236 1.236 4.796-4.797-1.236-1.235L4.391 6zM11.37.255c-.342-.34-.894-.34-1.236 0l-.68.682 1.235 1.236.681-.682c.34-.342.34-.894 0-1.236zM6.731 9.759c.036-.096.019-.166-.044-.19-.01-.004-.023-.006-.035-.007-.017-.001-.033.009-.04.024-.037.1-.016.213.054.293.027-.037.05-.077.065-.12zm-.973-2.126L8.25 5.141v6.671c0 .104-.084.188-.188.188H.189C.084 12 0 11.916 0 11.812V.188C0 .084.084 0 .188 0h7.875c.103 0 .187.084.187.188V1.61L3.992 5.867c-.023.023-.039.053-.047.084l-.563 2.063c-.016.056-.004.117.031.163.036.047.091.074.15.073.016 0 .033-.002.048-.008l2.063-.562c.031-.008.06-.024.084-.047zM.75 1.313c0 .103.084.187.188.187h5.625c.103 0 .187-.084.187-.188 0-.103-.084-.187-.188-.187H.938c-.103 0-.187.084-.187.188zm0 1.125c0 .103.084.187.188.187h4.875c.103 0 .187-.084.187-.188 0-.103-.084-.187-.188-.187H.938c-.103 0-.187.084-.187.188zm0 1.124c0 .104.084.188.188.188h3.937c.104 0 .188-.084.188-.188 0-.103-.084-.187-.188-.187H.937c-.103 0-.187.084-.187.188zm0 1.126c0 .103.084.187.188.187H3.75c.104 0 .188-.084.188-.188 0-.103-.084-.187-.188-.187H.937c-.103 0-.187.084-.187.188zm0 1.125c0 .103.084.187.188.187h2.25c.103 0 .187-.084.187-.188 0-.103-.084-.187-.188-.187H.938c-.103 0-.187.084-.187.188zm0 1.125c0 .103.084.187.188.187h1.875c.103 0 .187-.084.187-.188 0-.103-.084-.187-.188-.187H.938c-.104 0-.188.084-.188.188zm0 1.125c0 .103.084.187.188.187h1.875c.103 0 .187-.084.187-.188 0-.103-.084-.187-.188-.187H.938c-.104 0-.188.084-.188.188zm3.563 1.124c0-.103-.084-.187-.188-.187H.937c-.103 0-.187.084-.187.188 0 .103.084.187.188.187h3.187c.104 0 .188-.084.188-.188zm2.812 1.876c0-.104-.084-.188-.188-.188H5.063c-.103 0-.187.084-.187.188 0 .103.084.187.188.187h1.875c.103 0 .187-.084.187-.188zM5.875 9.97c-.081-.06-.196-.044-.258.036-.076.098-.105.116-.186.119h-.375c-.104 0-.188.084-.188.188 0 .103.084.187.188.187h.381c.13 0 .254-.045.352-.129.13.09.285.137.443.136.133 0 .263-.033.378-.098.019-.01.036-.022.053-.032.06.04.124.076.19.106.094.04.202-.003.244-.095.042-.092.003-.201-.088-.246l-.052-.027c.054-.068.096-.145.126-.227.058-.123.062-.264.013-.39-.05-.126-.149-.227-.274-.279-.104-.045-.222-.046-.326-.003-.105.042-.189.126-.231.23-.091.224-.05.479.106.662-.124.046-.262.028-.371-.047l-.125-.091z" transform="translate(-107.000000, -338.000000) translate(82.000000, 284.000000) translate(25.000000, 18.000000) translate(0.000000, 33.000000) translate(-0.000000, 3.000000) translate(-0.000000, 0.000000)"/>
                            </g>
                        </g>
                    </g>
                </g>
            </g>
        </g>
    </g>
</svg>
