<svg width="13" height="16" xmlns="http://www.w3.org/2000/svg" xmlns:xlink="http://www.w3.org/1999/xlink">
    <defs>
        <path d="M7 8.25V4H.75a.748.748 0 0 0-.75.75v14.5c0 .416.334.75.75.75h10.5c.416 0 .75-.334.75-.75V9H7.75A.752.752 0 0 1 7 8.25zm1.878 3.328L7 14.5l1.878 2.922a.376.376 0 0 1-.316.578h-1.09a.376.376 0 0 1-.331-.197C6.528 16.672 6 15.656 6 15.656c-.2.463-.313.625-1.144 2.15a.371.371 0 0 1-.328.197h-1.09a.376.376 0 0 1-.316-.578l1.884-2.922-1.884-2.922a.375.375 0 0 1 .316-.578h1.087c.137 0 .266.075.331.197.816 1.525.625 1.05 1.144 2.14 0 0 .19-.365 1.144-2.14a.376.376 0 0 1 .331-.197h1.088a.373.373 0 0 1 .315.575zM12 7.81V8H8V4h.19c.2 0 .391.078.532.219l3.06 3.062c.14.14.218.332.218.528z" id="a"/>
    </defs>
    <use fill="#56a9ff" xlink:href="#a" transform="translate(.5 -4)" fill-rule="evenodd"/>
</svg>
