<svg xmlns="http://www.w3.org/2000/svg" width="13" height="13" viewBox="0 0 13 13">
    <g fill="none" fill-rule="evenodd">
        <g fill="#9B9B9B" fill-rule="nonzero">
            <g>
                <g>
                    <g>
                        <g>
                            <g>
                                <path d="M4.684 12.097l2.314-.877c.076-.016.12-.106.12-.182V6.91c0-.317.107-.62.288-.877l4.068-5.7c.105-.152 0-.333-.167-.333H.21C.042 0-.063.181.042.333l4.068 5.7c.181.242.287.56.287.877v4.975c.015.166.151.272.287.212z" transform="translate(-272.000000, -706.000000) translate(82.000000, 631.000000) translate(16.000000, 16.000000) translate(0.417561, 48.449339) translate(174.501746, 10.550661) translate(0.000000, 0.000000)"/>
                            </g>
                        </g>
                    </g>
                </g>
            </g>
        </g>
    </g>
</svg>
