<svg xmlns="http://www.w3.org/2000/svg" width="27" height="14" viewBox="0 0 27 14">
    <g fill="none" fill-rule="evenodd">
        <g fill="#2069C1">
            <g>
                <g>
                    <g>
                        <g>
                            <path d="M13.43 3.893c1.708 0 3.094 1.385 3.094 3.094 0 1.708-1.386 3.094-3.094 3.094-1.71 0-3.095-1.386-3.095-3.094 0-1.709 1.386-3.094 3.095-3.094z" transform="translate(-20.000000, -361.000000) translate(0.000000, 268.000000) translate(0.000000, 72.000000) translate(20.000000, 16.000000) translate(0.000000, 5.000000)"/>
                            <path d="M13.43 5.263c.952 0 1.724.771 1.724 1.724 0 .952-.772 1.724-1.724 1.724-.953 0-1.725-.772-1.725-1.724 0-.953.772-1.724 1.725-1.724zM8.961 11.471C6.471 8.99 6.48 4.956 8.98 2.484l1.176 1.19c-1.838 1.818-1.846 4.78-.018 6.607L8.96 11.47zM17.932 2.537c2.43 2.46 2.44 6.41.02 8.88L16.76 10.24c1.775-1.817 1.767-4.72-.02-6.527l1.191-1.176z" transform="translate(-20.000000, -361.000000) translate(0.000000, 268.000000) translate(0.000000, 72.000000) translate(20.000000, 16.000000) translate(0.000000, 5.000000)"/>
                            <path d="M6.506 13.956C2.632 10.106 2.64 3.839 6.524 0l1.228 1.242c-3.193 3.156-3.2 8.306-.019 11.471l-1.227 1.243zM20.417.081c3.776 3.82 3.783 9.961.019 13.792l-1.243-1.228c3.093-3.15 3.085-8.196-.019-11.336L20.417.081z" transform="translate(-20.000000, -361.000000) translate(0.000000, 268.000000) translate(0.000000, 72.000000) translate(20.000000, 16.000000) translate(0.000000, 5.000000)"/>
                        </g>
                    </g>
                </g>
            </g>
        </g>
    </g>
</svg>
