<svg xmlns="http://www.w3.org/2000/svg" width="16" height="16" viewBox="0 0 16 16">
    <g fill="none" fill-rule="evenodd">
        <g fill="#2069C1" fill-rule="nonzero">
            <g>
                <g>
                    <g>
                        <g>
                            <path d="M7.75 5.796c-1.6 0-2.898-1.298-2.898-2.898S6.15 0 7.75 0s2.898 1.297 2.898 2.898c-.002 1.6-1.298 2.896-2.898 2.898zM2.898 15.5C1.298 15.5 0 14.203 0 12.602c0-1.6 1.297-2.898 2.898-2.898 1.6 0 2.898 1.298 2.898 2.898-.002 1.6-1.298 2.897-2.898 2.898z" transform="translate(-25.000000, -415.000000) translate(0.000000, 268.000000) translate(0.000000, 128.000000) translate(25.250000, 16.000000) translate(0.000000, 3.000000)"/>
                            <path d="M2.898 10.109c-.111-.002-.2-.091-.202-.202V7.75c.001-.111.09-.2.202-.202H7.21c.112 0 .202.09.202.202 0 .112-.09.202-.202.202H3.1v1.955c-.001.11-.091.2-.202.202zM12.602 10.648c-.11-.002-.2-.091-.202-.202V7.952H8.29c-.113 0-.203-.09-.203-.202 0-.112.09-.202.202-.202h4.313c.111.001.2.09.202.202v2.696c-.001.11-.09.2-.202.202zM7.75 7.413c-.111-.001-.2-.091-.202-.202V5.593c0-.111.09-.202.202-.202.112 0 .202.09.202.202v1.618c-.001.11-.09.2-.202.202z" transform="translate(-25.000000, -415.000000) translate(0.000000, 268.000000) translate(0.000000, 128.000000) translate(25.250000, 16.000000) translate(0.000000, 3.000000)"/>
                            <path d="M7.75 8.491c-.41 0-.741-.332-.741-.741 0-.41.332-.741.741-.741.41 0 .741.332.741.741 0 .41-.332.741-.741.741zm0-1.078c-.186 0-.337.15-.337.337 0 .186.15.337.337.337.186 0 .337-.15.337-.337 0-.186-.15-.337-.337-.337zM15.298 10.243H9.907c-.112.002-.201.092-.203.203v4.852c.002.11.091.2.203.202h5.39c.112-.001.202-.091.203-.202v-4.852c-.001-.111-.091-.201-.202-.203zm-1.205 1.963l-1.887 1.887c-.079.079-.207.079-.286 0l-.809-.809c-.074-.08-.072-.204.005-.28.077-.078.202-.08.281-.006l.666.666 1.744-1.744c.08-.074.204-.072.28.005.078.077.08.201.006.28z" transform="translate(-25.000000, -415.000000) translate(0.000000, 268.000000) translate(0.000000, 128.000000) translate(25.250000, 16.000000) translate(0.000000, 3.000000)"/>
                        </g>
                    </g>
                </g>
            </g>
        </g>
    </g>
</svg>
