<svg width="17" height="16" xmlns="http://www.w3.org/2000/svg" xmlns:xlink="http://www.w3.org/1999/xlink">
    <defs>
        <path d="M16 11.985c.008 4.408-3.586 8.012-7.994 8.015a7.967 7.967 0 0 1-5.027-1.771.774.774 0 0 1-.059-1.149l.363-.363a.776.776 0 0 1 1.03-.064A5.911 5.911 0 0 0 8 17.935 5.932 5.932 0 0 0 13.935 12 5.932 5.932 0 0 0 8 6.065a5.915 5.915 0 0 0-4.067 1.61l1.638 1.637a.516.516 0 0 1-.365.882H.516A.516.516 0 0 1 0 9.677V4.988c0-.46.556-.69.881-.365l1.593 1.593A8 8 0 0 1 16 11.986zm-5.836 2.541.317-.407a.774.774 0 0 0-.136-1.087l-1.313-1.02V8.644a.774.774 0 0 0-.774-.774h-.516a.774.774 0 0 0-.774.774v4.376l2.11 1.641a.774.774 0 0 0 1.086-.136z" id="a"/>
    </defs>
    <use fill="#56a9ff" xlink:href="#a" transform="translate(.5 -4)" fill-rule="evenodd"/>
</svg>
