<svg xmlns="http://www.w3.org/2000/svg" width="18" height="17" viewBox="0 0 18 17">
    <g fill="none" fill-rule="evenodd">
        <g fill="#56A9FF" fill-rule="nonzero">
            <g>
                <g>
                    <g>
                        <g>
                            <path d="M2.428 2.428c-3.237 3.238-3.237 8.489 0 11.727 3.238 3.238 8.489 3.238 11.727 0 3.238-3.238 3.238-8.489 0-11.727-3.238-3.237-8.489-3.237-11.727 0zm6.196 1.05c.7 0 1.26.578 1.26 1.278 0 .7-.577 1.278-1.26 1.278-.7 0-1.277-.578-1.277-1.295 0-.7.577-1.26 1.277-1.26zm1.803 8.56c-.035.104-.105.227-.175.297-.455.472-1.015.752-1.68.752-.315 0-.613 0-.928-.052-.507-.07-1.155-.7-1.068-1.365l.21-1.366c.14-.787.28-1.592.42-2.38 0-.052.018-.105.018-.157 0-.333-.105-.455-.438-.49-.14-.018-.28-.035-.42-.07-.157-.053-.245-.193-.227-.316.017-.14.105-.227.28-.262.087-.018.192-.018.297-.018H9.132c.297 0 .472.14.472.438 0 .245-.035.49-.087.735-.158.91-.333 1.803-.49 2.713-.053.297-.123.595-.158.893-.017.14 0 .297.035.437.053.193.193.298.385.28.158-.017.315-.07.473-.14.122-.052.227-.14.35-.175.21-.07.367.053.315.245z" transform="translate(-1543.000000, -568.000000) translate(761.000000, 212.000000) translate(32.000000, 340.000000) translate(30.000000, 14.000000) translate(720.625000, 2.000000)"/>
                        </g>
                    </g>
                </g>
            </g>
        </g>
    </g>
</svg>
