<svg xmlns="http://www.w3.org/2000/svg" width="17" height="16" viewBox="0 0 17 16">
    <g fill="none" fill-rule="evenodd">
        <g fill-rule="nonzero">
            <g>
                <g>
                    <path fill="#2069C1" d="M14.519 13.802h-1.264V1.962c0-.181-.126-.34-.303-.38L6.266.011c-.117-.03-.24-.002-.333.073-.094.075-.149.188-.15.308v2.752H2.045c-.216 0-.392.176-.392.393v10.264H.392c-.216 0-.392.176-.392.392 0 .217.176.393.392.393H14.52c.216 0 .392-.176.392-.393 0-.216-.176-.392-.392-.392zM6.569.888l5.901 1.383v11.531H9.13V3.538c0-.217-.176-.393-.393-.393H6.57V.888zM2.437 3.93h5.907v9.872H2.437V3.93zm7.823 8.633c0-.217.175-.393.392-.393h.668c.217 0 .392.176.392.393 0 .217-.175.392-.392.392h-.668c-.104 0-.205-.041-.278-.116-.074-.074-.115-.174-.114-.279v.003zm-2.678 0c0 .217-.176.392-.393.392h-.667c-.216 0-.392-.175-.392-.392 0-.217.176-.393.392-.393h.667c.216 0 .392.175.393.39v.003zm0-1.811c0 .216-.176.392-.393.392h-.667c-.216 0-.392-.176-.392-.392 0-.217.176-.393.392-.393h.667c.215 0 .39.173.393.388v.005zm0-1.812c0 .217-.176.393-.393.393h-.667c-.216 0-.392-.176-.392-.393 0-.217.176-.392.392-.392h.667c.105 0 .205.041.279.115.073.074.114.174.114.279V8.94zm0-1.811c0 .217-.176.392-.393.392h-.667c-.216 0-.392-.175-.392-.392 0-.217.176-.392.392-.392h.667c.216 0 .392.174.393.39v.002zM6.13 5.318c0-.217.176-.393.392-.393h.667c.217 0 .393.176.393.393 0 .216-.176.392-.393.392h-.667c-.104 0-.204-.042-.278-.116-.074-.074-.115-.174-.114-.279v.003zM4.651 12.56c0 .217-.175.393-.392.393h-.668c-.216 0-.392-.176-.392-.393 0-.216.176-.392.392-.392h.668c.217 0 .392.176.392.392zm0-1.81c0 .216-.175.392-.392.392h-.668c-.216 0-.392-.176-.392-.393 0-.217.176-.392.392-.392h.668c.216 0 .391.174.392.39v.002zm0-1.812c0 .217-.175.392-.392.392h-.668c-.216 0-.392-.175-.392-.392 0-.217.176-.393.392-.393h.668c.105 0 .205.042.279.117.074.074.115.175.113.28v-.004zm0-1.811c0 .216-.175.392-.392.392h-.668c-.216 0-.392-.176-.392-.392 0-.217.176-.393.392-.393h.668c.104 0 .204.041.278.115.073.074.114.173.114.278zm0-1.812c0 .217-.175.393-.392.393h-.668c-.216 0-.392-.176-.392-.393 0-.216.176-.392.392-.392h.668c.217 0 .392.176.392.392zm5.609 5.432c0-.217.175-.393.392-.393h.668c.217 0 .392.176.392.393 0 .217-.175.392-.392.392h-.668c-.217 0-.392-.175-.392-.392zm0-1.812c0-.216.175-.392.392-.392h.668c.217 0 .392.176.392.392 0 .217-.175.393-.392.393h-.668c-.214 0-.389-.172-.392-.386v-.007zm0-1.81c0-.218.175-.393.392-.393h.668c.217 0 .392.175.392.392 0 .217-.175.393-.392.393h-.668c-.216 0-.391-.175-.392-.39v-.003zm0-1.812c0-.217.175-.393.392-.393h.668c.217 0 .392.176.392.393 0 .217-.175.392-.392.392h-.668c-.216 0-.391-.174-.392-.39v-.002zm0-1.811c0-.217.175-.393.392-.393h.668c.217 0 .392.176.392.393 0 .216-.175.392-.392.392h-.668c-.216 0-.391-.174-.392-.39v-.002z" transform="translate(-25.000000, -526.000000) translate(0.000000, 268.000000) translate(25.000000, 258.000000)"/>
                    <g>
                        <path fill="#2069C1" d="M4.5 0C2.015 0 0 2.015 0 4.5S2.015 9 4.5 9 9 6.985 9 4.5 6.985 0 4.5 0z" transform="translate(-25.000000, -526.000000) translate(0.000000, 268.000000) translate(25.000000, 258.000000) translate(8.000000, 7.000000)"/>
                        <path fill="#FFF" d="M6.524 3.734L4.462 5.796c-.073.073-.17.11-.265.11-.096 0-.192-.037-.265-.11l-.938-.938c-.147-.146-.147-.384 0-.53.146-.147.384-.147.53 0L4.197 5l1.797-1.797c.146-.147.384-.147.53 0 .147.146.147.384 0 .53z" transform="translate(-25.000000, -526.000000) translate(0.000000, 268.000000) translate(25.000000, 258.000000) translate(8.000000, 7.000000)"/>
                    </g>
                </g>
            </g>
        </g>
    </g>
</svg>
