<svg xmlns="http://www.w3.org/2000/svg" width="13" height="17" viewBox="0 0 13 17">
    <g fill="none" fill-rule="evenodd">
        <g fill="#2069C1" fill-rule="nonzero">
            <g>
                <g>
                    <g>
                        <path d="M11.496 0L.5.04c-.275 0-.5.225-.5.5v15.28c0 .1.112.16.195.104l1.222-.823c.042-.028.097-.028.14 0l1.352.907c.041.029.096.029.138 0L4.42 15.1c.042-.028.096-.028.138 0l1.373.909c.042.028.097.028.139 0l1.352-.908c.043-.029.097-.029.14 0l1.362.908c.042.028.097.028.139 0l1.372-.909c.042-.028.097-.028.139 0l1.227.824c.083.056.195-.004.195-.104V.5c0-.275-.225-.5-.5-.5zM.996 5.045c0-.276.225-.5.5-.5h.981c.276 0 .5.224.5.5 0 .275-.224.5-.5.5h-.98c-.276 0-.501-.225-.501-.5zm1.521 8.017h-.98c-.276 0-.501-.225-.501-.5 0-.28.225-.5.5-.5h.981c.276 0 .5.22.5.5 0 .275-.224.5-.5.5zm-1.496-2.998c0-.28.22-.5.5-.5h.976c.28 0 .5.22.5.5 0 .276-.22.5-.5.5h-.976c-.28 0-.5-.224-.5-.5zm1.501-2.037h-.98c-.28 0-.501-.225-.501-.5s.22-.5.5-.5h.981c.276 0 .5.225.5.5s-.224.5-.5.5zm.976-3.002c0-.276.225-.5.5-.5h3.004c.28 0 .5.224.5.5 0 .275-.22.5-.5.5H3.999c-.276 0-.5-.225-.5-.5zm3.544 8.012H4.039c-.276 0-.5-.22-.5-.5 0-.276.224-.5.5-.5h3.003c.275 0 .5.224.5.5 0 .28-.225.5-.5.5zM3.523 10.04c0-.275.22-.5.5-.5h3.004c.275 0 .5.225.5.5 0 .28-.225.5-.5.5H4.024c-.28 0-.5-.22-.5-.5zm3.524-2.032H4.044c-.28 0-.5-.225-.5-.5 0-.28.22-.5.5-.5h3.003c.275 0 .5.22.5.5 0 .275-.225.5-.5.5zm-5.57-5.465c-.276 0-.501-.225-.501-.5s.225-.5.5-.5h9.009c.275 0 .5.225.5.5s-.225.5-.5.5H1.476zm7.982 5.55c.015-.004.03-.004.045-.004.83 0 1.496.675 1.496 1.496 0 .656-.42 1.211-.996 1.406v.1c0 .276-.225.5-.5.5s-.5-.224-.5-.5v-.1c-.571-.195-.997-.75-.997-1.406 0-.27.226-.496.5-.496.276 0 .496.226.496.496 0 .28.226.5.5.5.276 0 .501-.22.501-.5 0-.25-.195-.465-.445-.49-.015.004-.03.004-.045.004-.826 0-1.497-.675-1.497-1.496 0-.175.04-.36.1-.52.15-.41.481-.746.896-.886v-.11c0-.276.226-.5.5-.5.276 0 .501.224.501.5v.11c.416.14.746.475.896.886.065.16.1.345.1.52 0 .27-.225.496-.5.496-.27 0-.496-.226-.496-.496s-.225-.5-.5-.5-.5.23-.5.5c0 .255.195.47.445.49z" transform="translate(-27.000000, -582.000000) translate(0.000000, 268.000000) translate(27.000000, 314.000000) translate(0.015010, 0.000000)"/>
                    </g>
                </g>
            </g>
        </g>
    </g>
</svg>
