<svg width="17" height="18" xmlns="http://www.w3.org/2000/svg">
    <path d="M15.818 13.194c.375 0 .682.307.682.682a3.123 3.123 0 0 1-3.12 3.121H3.623A3.124 3.124 0 0 1 .5 13.877a.684.684 0 0 1 1.366 0c0 .967.788 1.754 1.756 1.754h9.759c.966 0 1.753-.787 1.753-1.755 0-.376.307-.682.684-.682zm0 .64a.044.044 0 0 0-.044.042 2.396 2.396 0 0 1-2.393 2.395H3.622a2.397 2.397 0 0 1-2.396-2.395.044.044 0 0 0-.044-.042.044.044 0 0 0-.042.042 2.484 2.484 0 0 0 2.482 2.481h9.759a2.483 2.483 0 0 0 2.479-2.48.044.044 0 0 0-.042-.043zM8.502 1l.075.004a.685.685 0 0 1 .608.68v10.543l1.27-1.271a.683.683 0 1 1 .966.965L9.01 14.334a.681.681 0 0 1-.993.028l-2.437-2.44a.681.681 0 0 1 .484-1.166l.076.004a.681.681 0 0 1 .406.196l1.273 1.275V1.684c0-.377.307-.684.684-.684zm0 .64a.044.044 0 0 0-.043.044v12.094l-2.366-2.37a.041.041 0 0 0-.03-.012.045.045 0 0 0-.032.014.041.041 0 0 0 0 .058l2.441 2.443.022.01h.008a.042.042 0 0 0 .033-.016l2.434-2.436a.044.044 0 0 0 0-.06.043.043 0 0 0-.062 0L8.545 13.77V1.684a.044.044 0 0 0-.043-.044z" fill="#56a9ff" fill-rule="nonzero" stroke="#56a9ff" stroke-width=".25"/>
</svg>
