<svg xmlns="http://www.w3.org/2000/svg" width="17" height="16" viewBox="0 0 17 16">
    <g fill="none" fill-rule="evenodd">
        <g fill="#2069C1" fill-rule="nonzero">
            <g>
                <g>
                    <g>
                        <path d="M10.935 7.217H5.467V5.759h5.468v1.458zm0 .729H5.467v1.458h5.468V7.946zm0-4.374H5.467V5.03h5.468V3.572zm0-1.64L8.2 0 5.467 1.932v.911h5.468v-.911zm5.467 13.304c0 .2-.164.364-.365.364H.364c-.2 0-.364-.164-.364-.364 0-.201.164-.365.364-.365h1.458V6.488H.364c-.2 0-.364-.164-.364-.365 0-.2.164-.364.364-.364h4.374v9.112h.73v-4.738h2.368v4.738h.73v-4.738h2.369v4.738h.729V5.759h4.373c.2 0 .365.164.365.364 0 .2-.164.365-.365.365H14.58v8.383h1.458c.2 0 .365.164.365.365zM3.645 13.049c0-.092-.037-.183-.11-.256-.09-.09-.218-.127-.328-.09-.018 0-.036.018-.072.018-.019 0-.037 0-.055.018-.018.018-.037.036-.055.036-.073.073-.11.164-.11.255s.037.183.11.256c.073.072.164.109.255.109h.073c.018 0 .055-.018.073-.018.018 0 .037-.019.055-.037.018-.018.036-.018.055-.036.072-.073.109-.164.109-.255zm0-1.823c0-.091-.037-.182-.11-.255-.127-.146-.382-.146-.51 0-.073.073-.11.164-.11.255v.073c0 .018.02.055.02.073 0 .018.017.036.036.055.018.018.036.036.036.054.036.037.073.055.11.073.036.018.09.037.145.037.091 0 .182-.037.255-.11.019-.018.037-.036.037-.054.018-.019.018-.037.036-.055.018-.018.018-.036.018-.073.037-.036.037-.055.037-.073zm0-1.822c0-.091-.037-.183-.11-.255-.09-.092-.2-.128-.328-.092-.018 0-.036.019-.072.019-.019 0-.037 0-.055.018-.018.018-.037.036-.055.036-.073.073-.11.164-.11.256v.072c0 .019.02.055.02.073 0 .019.017.037.036.055l.054.055c.073.073.164.109.255.109.055 0 .091 0 .146-.036.037-.019.091-.037.11-.073.018-.019.036-.037.036-.055.018-.018.018-.036.036-.055.019-.018.019-.036.019-.073.018-.018.018-.036.018-.054zm0-1.823v-.073c0-.018-.018-.036-.018-.072 0-.019-.019-.037-.037-.055-.018-.018-.018-.037-.036-.055-.091-.091-.2-.127-.328-.091-.019 0-.037.018-.073.018-.037 0-.055 0-.073.018-.018.019-.037.037-.055.037-.018.018-.036.036-.036.055-.018.018-.018.036-.037.054-.018.019-.018.037-.018.073v.073c0 .091.037.182.11.255.072.073.163.11.255.11.09 0 .182-.037.255-.11.054-.054.09-.146.09-.237zm9.841 5.468c0-.092-.036-.183-.11-.256-.127-.145-.382-.145-.51 0-.073.073-.109.164-.109.256 0 .09.036.182.11.255.072.073.163.11.254.11.092 0 .183-.037.256-.11.073-.073.109-.164.109-.255zm0-1.823v-.073c0-.018-.018-.054-.018-.073 0-.018-.018-.036-.037-.054-.018-.019-.018-.037-.036-.055-.018-.018-.037-.036-.055-.036-.018 0-.036-.019-.054-.037-.019 0-.037-.018-.073-.018-.128-.018-.237.018-.328.091-.019.018-.037.036-.037.055-.018.018-.018.036-.036.054-.019.019-.019.037-.019.073v.073c0 .091.037.182.11.255.073.073.164.11.255.11s.182-.037.255-.11c.037-.073.073-.164.073-.255zm0-1.822V9.33c0-.018-.018-.055-.018-.073 0-.018-.018-.037-.037-.055-.018-.018-.018-.036-.036-.054-.018-.019-.037-.037-.055-.037-.018 0-.036-.018-.054-.036-.019 0-.037-.019-.073-.019-.128-.018-.237.019-.328.092-.019.018-.037.036-.037.054-.018.018-.018.037-.036.055-.019.018-.019.036-.019.073v.073c0 .09.037.182.11.255.073.073.164.11.255.11s.182-.037.255-.11c.037-.073.073-.164.073-.255zm0-1.823c0-.09-.036-.182-.11-.255-.018-.018-.036-.036-.054-.036-.018 0-.036-.019-.055-.037-.018 0-.036-.018-.073-.018-.127-.018-.237.018-.328.091-.073.073-.109.164-.109.255v.073c0 .018.018.055.018.073 0 .018.018.037.037.055l.054.054c.073.073.164.11.255.11.092 0 .183-.037.256-.11.018-.018.036-.036.036-.054.018-.018.018-.037.037-.055.018-.018.018-.036.018-.073.018-.036.018-.054.018-.073z" transform="translate(-25.000000, -414.000000) translate(0.000000, 268.000000) translate(25.000000, 146.000000) translate(0.000000, 0.000000)"/>
                    </g>
                </g>
            </g>
        </g>
    </g>
</svg>
