<svg xmlns="http://www.w3.org/2000/svg" width="12" height="12" viewBox="0 0 12 12">
    <g fill="none" fill-rule="evenodd">
        <g>
            <g>
                <g>
                    <g>
                        <g>
                            <g>
                                <path fill="#56A9FF" fill-rule="nonzero" d="M7.906 0c.872 0 1.581.71 1.581 1.581v7.38c0 .871-.71 1.58-1.58 1.58H1.58C.71 10.541 0 9.832 0 8.961V1.58C0 .71.71 0 1.581 0zm.384.746H1.326c-.32 0-.58.25-.58.559v7.83c0 .308.26.559.58.559H8.29c.32 0 .58-.25.58-.56V1.306c0-.309-.26-.56-.58-.56z" transform="translate(-1265.000000, -359.000000) translate(761.000000, 212.000000) translate(16.000000, 49.000000) translate(488.000000, 96.000000) translate(-0.000000, 2.000000) translate(-0.000000, 0.000000)"/>
                                <path fill="#56A9FF" d="M9.063 6.928c-1.324 0-2.396 1.075-2.396 2.4 0 1.326 1.073 2.401 2.396 2.401s2.397-1.075 2.397-2.4c0-1.326-1.074-2.401-2.397-2.401z" transform="translate(-1265.000000, -359.000000) translate(761.000000, 212.000000) translate(16.000000, 49.000000) translate(488.000000, 96.000000) translate(-0.000000, 2.000000) translate(-0.000000, 0.000000)"/>
                                <path fill="#FFF" d="M10.226 8.235c.053.002.105.021.143.06l.188.188c.088.088.077.242-.025.344L8.88 10.482c-.08.08-.233.086-.32 0l-.764-.766c-.101-.102-.112-.255-.025-.344l.189-.188c.088-.088.24-.077.342.025l.418.418 1.305-1.308c.059-.057.132-.085.201-.084z" transform="translate(-1265.000000, -359.000000) translate(761.000000, 212.000000) translate(16.000000, 49.000000) translate(488.000000, 96.000000) translate(-0.000000, 2.000000) translate(-0.000000, 0.000000)"/>
                                <path fill="#56A9FF" fill-rule="nonzero" d="M2.108 2.635H3.162V3.689H2.108zM4.217 2.635H7.379V3.689H4.217zM2.108 4.744H3.162V5.798H2.108zM4.217 4.744H7.379V5.798H4.217zM2.108 6.852H3.162V7.906000000000001H2.108zM7.379 6.852v.169c-.32.237-.59.538-.791.885H4.217V6.852h3.162z" transform="translate(-1265.000000, -359.000000) translate(761.000000, 212.000000) translate(16.000000, 49.000000) translate(488.000000, 96.000000) translate(-0.000000, 2.000000) translate(-0.000000, 0.000000)"/>
                            </g>
                        </g>
                    </g>
                </g>
            </g>
        </g>
    </g>
</svg>
