<svg xmlns="http://www.w3.org/2000/svg" width="18" height="16" viewBox="0 0 18 16">
    <g fill="none" fill-rule="evenodd">
        <g fill="#2069C1" fill-rule="nonzero">
            <g>
                <g>
                    <g>
                        <g>
                            <g>
                                <path d="M4.923 8c0 .68.551 1.23 1.23 1.23h6.155v4.308c0 1.36-1.102 2.462-2.462 2.462H2.462C1.102 16 0 14.898 0 13.538V2.462C0 1.102 1.102 0 2.462 0h7.384c1.36 0 2.462 1.102 2.462 2.462v4.307H6.154c-.68 0-1.23.551-1.23 1.231zm12.13-.437L14.59 5.102c-.242-.242-.633-.242-.874 0-.241.24-.241.632 0 .873l1.415 1.41H6.154c-.34 0-.616.275-.616.615 0 .34.276.615.616.615h8.978l-1.415 1.41c-.117.115-.182.272-.182.437 0 .164.065.32.182.436.115.117.273.182.437.182.164 0 .321-.065.437-.182l2.461-2.461c.117-.116.182-.273.182-.437 0-.164-.065-.321-.182-.437z" transform="translate(-25.000000, -638.000000) translate(0.000000, 268.000000) translate(0.000000, 352.000000) translate(25.000000, 16.000000) translate(-0.000000, 2.000000) translate(-0.000000, 0.000000)"/>
                            </g>
                        </g>
                    </g>
                </g>
            </g>
        </g>
    </g>
</svg>
