<?xml version="1.0" encoding="UTF-8"?>
<svg width="11px" height="12px" viewBox="0 0 11 12" version="1.1" xmlns="http://www.w3.org/2000/svg" xmlns:xlink="http://www.w3.org/1999/xlink">
    <title>5E4B7B35-B0EB-4F36-A606-58688DFE5533</title>
    <g id="Page-1" stroke="none" stroke-width="1" fill="none" fill-rule="evenodd">
        <g id="BGV_-Background-Check-Details" transform="translate(-1266.000000, -328.000000)" fill="#56A9FF" fill-rule="nonzero">
            <g id="Group-30" transform="translate(761.000000, 212.000000)">
                <g id="Group-21" transform="translate(16.000000, 49.000000)">
                    <g id="Package" transform="translate(489.000000, 64.000000)">
                        <g id="ic_Package-2" transform="translate(-0.000000, 3.000000)">
                            <g id="ic_Package" transform="translate(-0.000000, 0.000000)">
                                <path d="M10.4943083,2.56401734 C10.4895907,2.54514692 10.4848731,2.52863531 10.4801555,2.5097649 C10.4754379,2.49325329 10.4683615,2.47438288 10.4612851,2.45787127 C10.4542087,2.44135965 10.4447735,2.42484804 10.4376971,2.40833643 C10.4329795,2.40126003 10.4282619,2.39182482 10.4235443,2.38474842 C10.4141091,2.3682368 10.402315,2.354084 10.3928798,2.33993119 C10.3645742,2.30219036 10.331551,2.26916714 10.296169,2.24086152 C10.2820162,2.22906751 10.2655046,2.2172735 10.2489929,2.2078383 C10.2419165,2.20312069 10.2324813,2.19840309 10.2254049,2.19368549 C10.2088933,2.18425028 10.1923817,2.17481507 10.1735113,2.16773867 C10.1546409,2.16066226 10.1381293,2.15122706 10.1192589,2.14650945 L7.8217861,1.36810493 L7.73686924,0.740663702 C7.69441081,0.426943089 7.39956061,0.207574541 7.0811224,0.252391771 L5.26248637,0.500065939 L3.89202264,0.0306644208 C3.8354114,0.011794008 3.77644136,0.0023588016 3.71983012,0 C3.70095971,0 3.6820893,0 3.66321888,0 C3.65378368,0 3.64434847,0.0023588016 3.63491326,0.0023588016 C3.51225558,0.0165116112 3.3966743,0.0684052464 3.30703984,0.148604501 C3.23627579,0.209933342 3.18202336,0.290132597 3.14900013,0.384484661 L3.00039563,0.799633742 L0.537806764,1.13458357 C0.217009747,1.1794008 -0.00943520639,1.4695334 0.035382024,1.78089521 L0.75245771,7.06932839 L0.0330232224,9.07666855 C0.023588016,9.10497417 0.0141528096,9.13327979 0.00943520639,9.16158541 C0.0023588016,9.19932623 0,9.23706706 0,9.27480788 C0,9.3031135 0.0023588016,9.33141912 0.0070764048,9.35736594 C0.00943520639,9.37623635 0.0141528096,9.39274796 0.0188704128,9.41161838 C0.0212292144,9.42105358 0.023588016,9.43048879 0.0259468176,9.43756519 C0.0377408256,9.47294722 0.0518936352,9.50597044 0.070764048,9.53899366 C0.0754816511,9.54607007 0.0801992543,9.55550527 0.0849168575,9.56258168 C0.10378727,9.5932461 0.127375286,9.62391052 0.150963302,9.64985734 C0.16275731,9.66401015 0.17691012,9.67580416 0.191062929,9.68995697 C0.212292144,9.70882738 0.233521358,9.72533899 0.259468176,9.7418506 C0.266544581,9.7465682 0.275979787,9.75128581 0.283056192,9.75600341 C0.299567803,9.76543862 0.316079414,9.77487382 0.334949827,9.78195023 C0.35382024,9.78902663 0.370331851,9.79846184 0.389202264,9.80317944 L1.15817158,10.0626476 L1.26903526,10.8858694 C1.31149369,11.19959 1.60634389,11.4189585 1.9247821,11.3741413 L4.13969681,11.0745735 L6.61643848,11.9190245 C6.6447441,11.9284597 6.67304972,11.9355361 6.70371414,11.9402537 C6.73201976,11.9449713 6.76032538,11.9473301 6.7909898,11.9496889 C6.83816583,11.9520477 6.88534187,11.9473301 6.9325179,11.9378949 C6.96082352,11.9331773 6.98677033,11.9237421 7.01271715,11.9143069 C7.03866397,11.9048717 7.06461079,11.8930777 7.0905576,11.8789248 C7.12358083,11.8624132 7.15424525,11.841184 7.18490967,11.817596 C7.26510892,11.7539084 7.32879657,11.6666327 7.36653739,11.5652042 L7.71328123,10.5957368 L8.47281534,10.4919495 C8.79125356,10.4494911 9.01769851,10.1593585 8.97524008,9.84563787 L8.7016191,7.83358011 L8.74407753,7.71564003 L10.4777967,2.87302035 C10.4919495,2.83527952 10.5013847,2.7975387 10.5061023,2.75979787 C10.5084611,2.74092746 10.5108199,2.72205704 10.5108199,2.70318663 C10.5131787,2.66544581 10.5108199,2.62770498 10.5037435,2.59232296 C10.4990259,2.58288775 10.4966671,2.57345254 10.4943083,2.56401734 Z M7.14716884,0.764251718 C7.17547446,0.759534115 7.20378008,0.780763329 7.20613888,0.809068948 L7.25567372,1.1746832 L6.36404671,0.872756591 L7.14716884,0.764251718 Z M0.56139478,1.71013116 C0.556677177,1.68182554 0.577906392,1.65587872 0.606212011,1.65116112 L2.7998975,1.35395212 L2.28567875,2.79046229 L1.48368621,2.89896716 L1.55445025,3.41554471 L2.08753941,3.34242186 L1.14165997,5.98427965 L0.56139478,1.71013116 Z M1.85637686,10.8646402 C1.82807124,10.8693578 1.79976562,10.8481286 1.79740682,10.8198229 L1.72192517,10.2584282 L2.39654242,10.4872319 L3.03577766,10.7042417 L1.85637686,10.8646402 Z M8.44450972,9.91640192 C8.44922733,9.94470754 8.42799811,9.97065436 8.39969249,9.97537196 L7.90670296,10.0414184 L8.22749997,9.1450738 L8.30769923,8.91862884 L8.44450972,9.91640192 Z M9.97301316,2.70082783 L8.15437713,7.77932767 L7.31464376,10.1216177 L6.85939505,11.3930117 C6.85231864,11.4118821 6.83344823,11.4260349 6.81221902,11.4283937 C6.80514261,11.4283937 6.79806621,11.4283937 6.7909898,11.4260349 L5.30494479,10.9212514 L1.08033113,9.48710003 L0.568471185,9.31254871 C0.566112384,9.31254871 0.56139478,9.31018991 0.559035979,9.30783111 C0.556677177,9.30547231 0.554318376,9.3031135 0.549600772,9.3007547 C0.544883169,9.2960371 0.540165566,9.2913195 0.537806764,9.28424309 C0.53073036,9.27244908 0.53073036,9.25829627 0.535447963,9.24414346 L0.908138615,8.20627076 L1.29734088,7.11886322 L3.3919567,1.26903526 L3.59009603,0.717075686 L3.64906607,0.551959574 C3.65142487,0.549600772 3.65142487,0.544883169 3.65378368,0.542524368 C3.66321888,0.528371558 3.67973049,0.518936352 3.6962421,0.51657755 C3.70331851,0.51657755 3.71039491,0.51657755 3.71747132,0.518936352 L4.09723838,0.64867044 L5.20351633,1.02371989 L7.02215236,1.64172591 L7.89962655,1.93893491 L9.94234874,2.63242258 C9.94470754,2.63242258 9.94942514,2.63478139 9.95178394,2.63714019 C9.96121915,2.64185779 9.96829555,2.651293 9.97301316,2.6583694 C9.97537196,2.67488101 9.97773076,2.68903382 9.97301316,2.70082783 Z" id="Shape"></path>
                                <polygon id="Path" points="3.74105933 2.52155891 8.54593819 4.15149081 8.72284831 3.65850128 3.91796945 2.02856937"></polygon>
                                <polygon id="Path" points="3.21268778 3.99816871 8.01756663 5.62810061 8.19447675 5.13511108 3.3895979 3.50517918"></polygon>
                                <polygon id="Path" points="2.69139262 5.45119049 7.49627148 7.0811224 7.6731816 6.58813286 2.86830274 4.95820096"></polygon>
                                <polygon id="Path" points="2.15358586 6.95374711 6.95846472 8.58367902 7.13537483 8.09068948 2.33049598 6.46075758"></polygon>
                                <polygon id="Path" points="1.71248996 8.18504155 6.51736882 9.81497345 6.69427894 9.32198392 1.88940008 7.69205201"></polygon>
                            </g>
                        </g>
                    </g>
                </g>
            </g>
        </g>
    </g>
</svg>