<svg xmlns="http://www.w3.org/2000/svg" width="11" height="12" viewBox="0 0 11 12">
    <g fill="none" fill-rule="evenodd">
        <g fill="#56A9FF" fill-rule="nonzero">
            <g>
                <g>
                    <g>
                        <g>
                            <path d="M6.676 6.495c.06-.048.143-.056.211-.019l.01.006c.597.317 1.99 1.062 2.39 1.338.584.402.876 1.537 1.016 2.418.006.032.003.065-.008.096-.024.068-.642 1.666-5.142 1.666S.035 10.402.01 10.334c-.011-.031-.014-.064-.008-.096.052-.325.346-1.966 1.02-2.42.397-.268 1.808-1.027 2.396-1.342.067-.036.15-.029.211.019.312.245.653.41 1.015.49.063.015.117.06.14.121l.368.971.368-.97c.024-.062.076-.107.14-.122.362-.08.703-.246 1.015-.49zM8.23 9.227H6.47V9.7l.88.275.881-.275v-.473zM5.153 0c2.523 0 2.774 1.515 2.774 3.384 0 2.387-1.946 3.384-2.774 3.384-.828 0-2.774-.997-2.774-3.384C2.379 1.515 2.629 0 5.153 0zm-.837 2.026c-.906-.02-1.328.416-1.522.793-.008.187-.012.376-.012.564 0 1.168.516 1.892.948 2.292.545.505 1.15.689 1.423.689.274 0 .878-.184 1.423-.689.432-.401.948-1.124.948-2.29 0-.214-.003-.428-.015-.636-2.652.588-3.193-.724-3.193-.724v.001z" transform="translate(-1144.000000, -348.000000) translate(82.000000, 284.000000) translate(24.000000, 62.000000) translate(1038.000000, 0.000000) translate(0.000000, 2.000000)"/>
                        </g>
                    </g>
                </g>
            </g>
        </g>
    </g>
</svg>
