<svg xmlns="http://www.w3.org/2000/svg" width="13" height="17" viewBox="0 0 13 17">
    <g fill="none" fill-rule="evenodd">
        <g fill="#2069C1" fill-rule="nonzero">
            <g>
                <g>
                    <g>
                        <path d="M11.44 0c.549 0 .996.444.999.994l.016 2.554.015 2.134.054 9.006c0 .558-.448 1.006-1 1.006H1.09c-.55 0-.996-.444-1-.993L0 1.007C0 .447.448 0 1 0zM3.855 10.76H1.388c-.111.01-.195.097-.194.2v2.415c0 .107.092.196.209.199h2.453c.058 0 .113-.02.154-.058.04-.038.063-.088.063-.141v-2.416c0-.053-.023-.104-.063-.14-.04-.038-.096-.06-.154-.059zm-.216.398v2.018H1.62v-2.018h2.02zm1.648.877l-.022.002c-.107.02-.18.11-.17.21.009.1.098.178.207.18l5.467.028c.12.002.218-.085.22-.195.002-.11-.093-.2-.213-.203l-5.466-.02c-.015-.002-.03-.002-.045 0zM3.856 6.288H1.388c-.111.01-.195.096-.194.199v2.415c-.001.108.092.196.209.2h2.453c.058 0 .113-.021.154-.059.04-.037.063-.088.063-.14V6.486c0-.053-.023-.104-.063-.141-.041-.038-.096-.059-.154-.058zm-.216.4v2.017H1.619V6.688H3.64zm1.648.839l-.022.001h-.015c-.119.014-.204.113-.19.223.015.11.123.188.242.175l3.886.02c.083.012.166-.023.212-.088.045-.065.045-.149 0-.214-.046-.065-.129-.1-.212-.089L5.31 7.528h-.045zM3.856 1.75H1.388c-.111.01-.195.096-.194.199v2.415c-.001.108.092.196.209.2h2.453c.058 0 .113-.021.154-.058.04-.038.063-.089.063-.142V1.95c0-.053-.023-.104-.063-.141-.041-.038-.096-.058-.154-.058zm-.216.398v2.017H1.619V2.148H3.64zm1.648.877l-.022.001c-.107.02-.18.111-.17.211.009.1.098.178.207.18l5.467.028c.12.002.218-.086.22-.196.002-.11-.093-.2-.213-.202l-5.466-.02c-.015-.002-.03-.002-.045 0z" transform="translate(-27.000000, -470.000000) translate(0.000000, 268.000000) translate(0.000000, 184.000000) translate(27.178056, 16.000000) translate(0.000000, 2.712369)"/>
                    </g>
                </g>
            </g>
        </g>
    </g>
</svg>
