<svg xmlns="http://www.w3.org/2000/svg" width="13" height="16" viewBox="0 0 13 16">
    <g fill="none" fill-rule="evenodd">
        <g fill="#2069C1" fill-rule="nonzero">
            <g>
                <g>
                    <g>
                        <path d="M11.2 0H4L0 4v10.4c0 .884.716 1.6 1.6 1.6h9.6c.884 0 1.6-.716 1.6-1.6V1.6c0-.884-.716-1.6-1.6-1.6zM4.8 4.8H1.2l3.6-3.6v3.6zm3.882 8.009v.79H7.318v-.747c-.669-.077-1.24-.297-1.723-.794l.988-.988c.327.326.9.441 1.404.441.609 0 .9-.203.9-.564 0-.15-.035-.274-.123-.371-.08-.08-.212-.142-.415-.168l-.76-.106c-.556-.08-.979-.265-1.262-.556-.291-.3-.432-.724-.432-1.262 0-.89.524-1.588 1.423-1.86V5.6h1.364v.93c.66.07 1.192.285 1.626.719l-.97.97c-.398-.397-.919-.37-1.192-.37-.539 0-.76.31-.76.583 0 .079.027.194.124.291.08.08.212.159.432.185l.76.106c.565.08.97.256 1.236.521.335.326.467.794.467 1.377 0 1.042-.736 1.69-1.723 1.898z" transform="translate(-26.000000, -526.000000) translate(0.000000, 268.000000) translate(26.000000, 258.000000) translate(-0.000000, 0.000000)"/>
                    </g>
                </g>
            </g>
        </g>
    </g>
</svg>
