<svg xmlns="http://www.w3.org/2000/svg" width="15" height="17" viewBox="0 0 15 17">
    <g fill="none" fill-rule="evenodd">
        <g fill="#D0021B" fill-rule="nonzero">
            <g>
                <g>
                    <g>
                        <g>
                            <g>
                                <path d="M9.05 0c.824 0 1.502.669 1.502 1.48v.526h3.392c.63 0 .63.955 0 .955H12.83v10.075c0 1.146-.97 2.054-2.084 2.054H3.67c-1.163 0-2.084-.908-2.084-2.054V2.961H.472c-.63 0-.63-.955 0-.955h3.393V1.48C3.865.67 4.543 0 5.367 0H9.05zm2.81 2.96H2.556v10.076c0 .621.485 1.099 1.115 1.099h7.075c.581 0 1.114-.478 1.114-1.099V2.961zM5.641 5.49v5.996c0 .613-1.253.613-1.253 0V5.49c0-.614 1.253-.614 1.253 0zm4.075 0v5.996c0 .613-1.254.613-1.254 0V5.49c0-.614 1.254-.614 1.254 0zm-1.88 0v5.996c0 .613-1.254.613-1.254 0V5.49c0-.614 1.253-.614 1.253 0zM9.05.955H5.367c-.29 0-.533.239-.533.525v.526h4.749V1.48c0-.286-.242-.525-.533-.525z" transform="translate(-694.000000, -2203.000000) translate(430.000000, 1912.000000) translate(24.000000, 70.214724) translate(-0.000000, 168.515337) translate(0.000000, 48.147239) translate(240.000000, 5.015337)"/>
                            </g>
                        </g>
                    </g>
                </g>
            </g>
        </g>
    </g>
</svg>
