<svg xmlns="http://www.w3.org/2000/svg" width="12" height="12" viewBox="0 0 12 12">
    <g fill="none" fill-rule="evenodd">
        <g fill-rule="nonzero">
            <g>
                <g>
                    <g>
                        <g>
                            <path fill="#56A9FF" d="M5.95 0C2.668 0 0 2.668 0 5.95s2.668 5.95 5.95 5.95 5.95-2.668 5.95-5.95S9.232 0 5.95 0z" transform="translate(-1265.000000, -391.000000) translate(761.000000, 212.000000) translate(16.000000, 49.000000) translate(488.000000, 128.000000) translate(0.000000, 2.000000)"/>
                            <path fill="#FFF" d="M9.282 6.514H8.38l-.877 1.753c-.112.188-.3.314-.513.314-.213 0-.414-.126-.501-.314L4.91 5.148l-.526 1.053c-.1.187-.288.313-.5.313H2.63c-.314 0-.564-.25-.564-.564 0-.313.25-.564.564-.564h.901l.877-1.753c.188-.376.814-.376 1.002 0l1.566 3.119.539-1.065c.1-.188.288-.313.5-.313H9.27c.314 0 .564.25.564.563 0 .314-.238.577-.551.577z" transform="translate(-1265.000000, -391.000000) translate(761.000000, 212.000000) translate(16.000000, 49.000000) translate(488.000000, 128.000000) translate(0.000000, 2.000000)"/>
                        </g>
                    </g>
                </g>
            </g>
        </g>
    </g>
</svg>
