<svg xmlns="http://www.w3.org/2000/svg" width="25" height="21" viewBox="0 0 25 21">
    <g fill="none" fill-rule="evenodd">
        <g fill="#56A9FF">
            <g>
                <g>
                    <path d="M22.083 0h-19.5C1.341 0 .333 1.007.333 2.25v16.5c0 1.243 1.008 2.25 2.25 2.25h19.5c1.243 0 2.25-1.007 2.25-2.25V2.25c0-1.243-1.007-2.25-2.25-2.25zm-11.25 18h-7.5v-4.5h7.5V18zm0-7.5h-7.5V6h7.5v4.5zm10.5 7.5h-7.5v-4.5h7.5V18zm0-7.5h-7.5V6h7.5v4.5z" transform="translate(-1559.000000, -482.000000) translate(82.000000, 458.000000) translate(1477.000000, 24.000000)"/>
                </g>
            </g>
        </g>
    </g>
</svg>
