<svg xmlns="http://www.w3.org/2000/svg" width="24" height="19" viewBox="0 0 24 19">
    <g fill="none" fill-rule="evenodd">
        <g fill="#56A9FF" fill-rule="nonzero">
            <g>
                <g>
                    <g>
                        <path d="M5.008.342c.456-.456 1.195-.456 1.65 0l4.667 4.666c.456.456.456 1.195 0 1.65-.456.456-1.194.456-1.65 0L7 3.983V17.5c0 .644-.522 1.167-1.167 1.167-.644 0-1.166-.523-1.166-1.167V3.983L1.992 6.658c-.456.456-1.195.456-1.65 0-.456-.455-.456-1.194 0-1.65L5.008.342zm11.325 14.341V1.167C16.333.522 16.856 0 17.5 0s1.167.522 1.167 1.167v13.516l2.675-2.675c.455-.455 1.194-.455 1.65 0 .455.456.455 1.195 0 1.65l-4.667 4.667c-.219.219-.516.342-.825.342-.31 0-.606-.123-.825-.342l-4.667-4.667c-.455-.455-.455-1.194 0-1.65.456-.455 1.195-.455 1.65 0l2.675 2.675z" transform="translate(-1512.000000, -483.000000) translate(82.000000, 458.000000) translate(1430.000000, 25.000000) translate(-0.000000, 0.000000)"/>
                    </g>
                </g>
            </g>
        </g>
    </g>
</svg>
