<svg xmlns="http://www.w3.org/2000/svg" width="12" height="16" viewBox="0 0 12 16">
    <g fill="none" fill-rule="evenodd">
        <g fill="#2069C1" fill-rule="nonzero">
            <g>
                <g>
                    <g>
                        <g>
                            <path d="M9.217.941L.706 12.783V5.177H4c.52 0 .941-.422.941-.942V.941h4.276zm1.842 2.276v10.9c0 .52-.421.942-.941.942h-7.57l8.511-11.842zM1.371 4.235l2.63-2.628v2.628H1.37zM10.912.196c.152-.211.446-.26.657-.108.211.152.26.446.107.657L.853 15.805c-.152.21-.446.258-.657.107-.211-.152-.26-.446-.108-.657L10.912.196z" transform="translate(-27.000000, -693.000000) translate(0.000000, 268.000000) translate(0.000000, 408.000000) translate(27.000000, 16.000000) translate(0.000000, 1.000000) translate(-0.000000, -0.000000)"/>
                        </g>
                    </g>
                </g>
            </g>
        </g>
    </g>
</svg>
