<svg xmlns="http://www.w3.org/2000/svg" width="15" height="17" viewBox="0 0 15 17">
    <g fill="none" fill-rule="evenodd">
        <g fill="#56A9FF" fill-rule="nonzero">
            <g>
                <g>
                    <g>
                        <g>
                            <g>
                                <g>
                                    <path d="M11.579 9.517c-.048-.043-.102-.08-.16-.107h-.048c-.046-.005-.093-.005-.139 0H11.2c-.058 0-.116.01-.17.032-.06.022-.115.057-.16.102l-1.067 1.07c-.101.1-.158.237-.158.38 0 .142.057.279.158.38.1.1.236.158.378.158.143 0 .279-.057.379-.159l.155-.16v1.359c0 .295.238.535.533.535.295 0 .533-.24.533-.535v-1.386l.155.16c.21.21.548.21.757 0 .21-.21.21-.55 0-.759l-1.114-1.07z" transform="translate(-470.000000, -2159.000000) translate(430.000000, 1912.000000) translate(24.000000, 70.214724) translate(-0.000000, 168.515337) translate(0.000000, 0.000000) translate(16.000000, 9.027607) translate(-0.000000, 0.000000)"/>
                                    <path d="M12.965 8.025h-1.232V.535C11.733.24 11.495 0 11.2 0H3.701c-.05.003-.098.014-.144.032-.016-.002-.032-.002-.048 0-.055.026-.105.06-.149.102l-3.2 3.21c-.041.044-.076.094-.101.15v.047c-.027.055-.047.112-.059.172v11.802c0 .295.239.534.533.534H11.2c.295 0 .533-.24.533-.535v-1.07h1.232c.791-.003 1.432-.645 1.435-1.439V9.464c-.003-.794-.644-1.437-1.435-1.44zM3.2 1.825V3.21H1.819L3.2 1.824zm7.467 13.154h-9.6V4.28h2.666c.295 0 .534-.239.534-.534V1.07h6.4v6.955H9.435C8.644 8.027 8.003 8.67 8 9.464v3.541c.003.794.644 1.436 1.435 1.44h1.232v.534zm2.666-1.974c0 .204-.164.37-.368.37h-3.53c-.098 0-.192-.04-.26-.109-.07-.07-.108-.163-.108-.26V9.463c0-.098.038-.192.107-.261.07-.07.163-.109.26-.109h3.531c.098 0 .192.04.26.109.07.069.108.163.108.26v3.542z" transform="translate(-470.000000, -2159.000000) translate(430.000000, 1912.000000) translate(24.000000, 70.214724) translate(-0.000000, 168.515337) translate(0.000000, 0.000000) translate(16.000000, 9.027607) translate(-0.000000, 0.000000)"/>
                                </g>
                            </g>
                        </g>
                    </g>
                </g>
            </g>
        </g>
    </g>
</svg>
